<svg width="84" height="65" viewBox="0 0 84 65" fill="none" xmlns="http://www.w3.org/2000/svg">
<rect y="13.0649" width="75.2941" height="51.2" rx="11" fill="#444444"/>
<g filter="url(#filter0_b_135_471)">
<rect x="8.28223" y="0.265137" width="75.2941" height="51.2" rx="11" fill="url(#paint0_linear_135_471)" fill-opacity="0.5"/>
<rect x="8.78223" y="0.765137" width="74.2941" height="50.2" rx="10.5" stroke="url(#paint1_linear_135_471)"/>
</g>
<path d="M53.7188 40.171H20.0698C19.5397 40.171 19.0312 39.9726 18.6563 39.6196C18.2814 39.2666 18.0708 38.7878 18.0708 38.2886C18.0708 37.7894 18.2814 37.3106 18.6563 36.9576C19.0312 36.6046 19.5397 36.4062 20.0698 36.4062H53.7188C54.249 36.4062 54.7575 36.6046 55.1324 36.9576C55.5072 37.3106 55.7179 37.7894 55.7179 38.2886C55.7179 38.7878 55.5072 39.2666 55.1324 39.6196C54.7575 39.9726 54.249 40.171 53.7188 40.171Z" fill="white"/>
<path d="M26.1888 21.3477H20.4939C19.1557 21.3477 18.0708 22.489 18.0708 23.8969V26.3278C18.0708 27.7357 19.1557 28.8771 20.4939 28.8771H26.1888C27.5271 28.8771 28.612 27.7357 28.612 26.3278V23.8969C28.612 22.489 27.5271 21.3477 26.1888 21.3477Z" fill="white"/>
<defs>
<filter id="filter0_b_135_471" x="-1.71777" y="-9.73486" width="95.2939" height="71.2002" filterUnits="userSpaceOnUse" color-interpolation-filters="sRGB">
<feFlood flood-opacity="0" result="BackgroundImageFix"/>
<feGaussianBlur in="BackgroundImage" stdDeviation="5"/>
<feComposite in2="SourceAlpha" operator="in" result="effect1_backgroundBlur_135_471"/>
<feBlend mode="normal" in="SourceGraphic" in2="effect1_backgroundBlur_135_471" result="shape"/>
</filter>
<linearGradient id="paint0_linear_135_471" x1="83.5763" y1="50.9061" x2="18.7547" y2="-15.1335" gradientUnits="userSpaceOnUse">
<stop stop-color="#E1E1E1"/>
<stop offset="1" stop-color="#D7D7D7" stop-opacity="0.5"/>
</linearGradient>
<linearGradient id="paint1_linear_135_471" x1="-3.20332" y1="15.8855" x2="27.166" y2="63.4462" gradientUnits="userSpaceOnUse">
<stop stop-color="white"/>
<stop offset="1" stop-color="white" stop-opacity="0"/>
</linearGradient>
</defs>
</svg>
