<svg width="67" height="65" viewBox="0 0 67 65" fill="none" xmlns="http://www.w3.org/2000/svg">
<rect x="46.8914" y="7.0249" width="19.6437" height="57.6637" rx="9.82185" fill="#444444"/>
<rect x="23.4458" y="21.5991" width="19.6437" height="43.0894" rx="9.82185" fill="#444444"/>
<rect y="41.877" width="19.6437" height="22.812" rx="9.82185" fill="#444444"/>
<g filter="url(#filter0_b_135_458)">
<circle cx="19.9605" cy="19.3817" r="18.6932" fill="url(#paint0_linear_135_458)" fill-opacity="0.5"/>
<circle cx="19.9605" cy="19.3817" r="18.1932" stroke="url(#paint1_linear_135_458)"/>
</g>
<g clip-path="url(#clip0_135_458)">
<path d="M16.8522 12.998C16.853 13.2878 16.9684 13.5656 17.1734 13.7705C17.3783 13.9754 17.656 14.0909 17.9458 14.0917L23.6513 14.0917L14.0747 23.6683C13.8981 23.8783 13.8067 24.147 13.8186 24.4212C13.8304 24.6954 13.9447 24.9552 14.1387 25.1492C14.3328 25.3433 14.5925 25.4575 14.8667 25.4694C15.1409 25.4812 15.4096 25.3898 15.6197 25.2132L25.1963 15.6367L25.1731 21.8745C25.1739 22.1637 25.2895 22.4409 25.4946 22.6449C25.6997 22.8489 25.9775 22.9631 26.2667 22.9623C26.556 22.9615 26.8332 22.8459 27.0372 22.6408C27.2412 22.4357 27.3554 22.158 27.3546 21.8687L27.3546 13.027C27.3514 12.8858 27.322 12.7465 27.2678 12.6161C27.2147 12.4892 27.1381 12.3734 27.0421 12.2747C26.9411 12.1775 26.8235 12.0992 26.6949 12.0433C26.5663 11.9909 26.4288 11.9634 26.2899 11.9623L17.9458 11.9623C17.6651 11.9606 17.3947 12.0674 17.1909 12.2604C16.9871 12.4534 16.8657 12.7177 16.8522 12.998Z" fill="#444444" stroke="#444444" stroke-width="0.75" stroke-miterlimit="10"/>
</g>
<circle cx="19.9605" cy="19.3817" r="18.1932" stroke="url(#paint2_linear_135_458)"/>
<defs>
<filter id="filter0_b_135_458" x="-8.73267" y="-9.31152" width="57.3865" height="57.3862" filterUnits="userSpaceOnUse" color-interpolation-filters="sRGB">
<feFlood flood-opacity="0" result="BackgroundImageFix"/>
<feGaussianBlur in="BackgroundImage" stdDeviation="5"/>
<feComposite in2="SourceAlpha" operator="in" result="effect1_backgroundBlur_135_458"/>
<feBlend mode="normal" in="SourceGraphic" in2="effect1_backgroundBlur_135_458" result="shape"/>
</filter>
<linearGradient id="paint0_linear_135_458" x1="38.6537" y1="37.6666" x2="-5.66818" y2="6.96148" gradientUnits="userSpaceOnUse">
<stop stop-color="#E1E1E1"/>
<stop offset="1" stop-color="#D7D7D7" stop-opacity="0.5"/>
</linearGradient>
<linearGradient id="paint1_linear_135_458" x1="-4.43567" y1="12.0945" x2="19.9605" y2="38.0749" gradientUnits="userSpaceOnUse">
<stop stop-color="white"/>
<stop offset="1" stop-color="white" stop-opacity="0"/>
</linearGradient>
<linearGradient id="paint2_linear_135_458" x1="-4.43567" y1="12.0945" x2="19.9605" y2="38.0749" gradientUnits="userSpaceOnUse">
<stop stop-color="white"/>
<stop offset="1" stop-color="white" stop-opacity="0"/>
</linearGradient>
<clipPath id="clip0_135_458">
<rect width="14.9509" height="18.977" fill="white" transform="translate(19.271 30.8433) rotate(-135)"/>
</clipPath>
</defs>
</svg>
