<svg width="64" height="65" viewBox="0 0 64 65" fill="none" xmlns="http://www.w3.org/2000/svg">
<path d="M46.2957 21.7639C46.2716 21.4462 46.1561 21.1418 45.9628 20.8866C45.7694 20.6313 45.5062 20.4357 45.2041 20.3227C44.1701 19.9433 43.2236 19.3636 42.4204 18.6178C41.6172 17.872 40.9737 16.9751 40.5276 15.9801C40.0816 14.9852 39.8422 13.9122 39.8235 12.8245C39.8047 11.7369 40.0071 10.6565 40.4186 9.64719C40.5368 9.35104 40.5672 9.02781 40.506 8.7153C40.4448 8.40279 40.2946 8.1139 40.073 7.88243C39.494 7.27478 38.8815 6.69897 38.2383 6.15759C37.9885 5.95133 37.6844 5.8192 37.3615 5.77655C37.0385 5.73391 36.7099 5.7825 36.4138 5.91668C35.3351 6.39765 34.1642 6.64446 32.9803 6.64038C31.7964 6.63631 30.6273 6.38145 29.552 5.89306C28.4768 5.40468 27.5205 4.69417 26.748 3.80966C25.9755 2.92515 25.4048 1.88729 25.0745 0.766376C23.8387 0.664946 22.5965 0.662564 21.3603 0.75925C21.039 0.784082 20.7313 0.898235 20.4731 1.08848C20.2149 1.27872 20.0167 1.53725 19.9015 1.83407C19.5168 2.85039 18.9292 3.78029 18.1736 4.56872C17.4179 5.35715 16.5094 5.98808 15.502 6.42416C14.4975 6.86368 13.414 7.10045 12.3152 7.12053C11.2164 7.14061 10.1247 6.94357 9.10441 6.54105C8.80458 6.42468 8.47737 6.39478 8.16096 6.45485C7.84455 6.51493 7.55199 6.66249 7.31743 6.88032C6.69608 7.45431 6.1077 8.06204 5.55502 8.70067C5.34408 8.94655 5.20842 9.24653 5.16388 9.56557C5.11933 9.88461 5.16774 10.2096 5.30345 10.5025C5.75352 11.486 6.0004 12.548 6.02969 13.6266C6.05898 14.7052 5.87009 15.7788 5.47406 16.7846C5.08041 17.7916 4.48703 18.711 3.72862 19.4892C2.97022 20.2673 2.06203 20.8884 1.05719 21.3163C0.756805 21.4426 0.499034 21.6505 0.313952 21.9158C0.128871 22.181 0.0241106 22.4927 0.0118946 22.8145C-0.0154408 23.6536 0.00434786 24.4935 0.0711711 25.3305C0.095896 25.6472 0.211337 25.9506 0.404063 26.2052C0.596789 26.4598 0.85888 26.6553 1.15985 26.7688C2.18928 27.1484 3.13119 27.7274 3.93001 28.4716C4.72883 29.2159 5.36838 30.1104 5.81092 31.1023C6.25652 32.0941 6.4962 33.1638 6.51582 34.2484C6.53543 35.3329 6.33459 36.4104 5.92514 37.4172C5.80765 37.713 5.77775 38.0357 5.83892 38.3476C5.90009 38.6595 6.04982 38.9478 6.27068 39.1791C6.85055 39.7907 7.46503 40.3694 8.11116 40.9125C8.36069 41.1208 8.66518 41.2547 8.98906 41.2986C9.31293 41.3426 9.64279 41.2947 9.94007 41.1606C10.9381 40.7154 12.0161 40.4708 13.1111 40.4412C14.2061 40.4116 15.2961 40.5975 16.3174 40.9881C17.3407 41.378 18.2747 41.9654 19.0647 42.7159C19.8547 43.4664 20.4847 44.3649 20.9179 45.3586C21.0463 45.655 21.2574 45.9093 21.5267 46.092C21.7959 46.2747 22.1122 46.3783 22.4389 46.3907C23.2841 46.4179 24.1302 46.3993 24.9733 46.3351C25.2961 46.3112 25.6052 46.1972 25.8646 46.0063C26.124 45.8155 26.3228 45.5557 26.4379 45.2574C26.8237 44.2399 27.4121 43.3087 28.1684 42.5187C28.9248 41.7287 29.8338 41.0959 30.8419 40.6576C31.85 40.2192 32.9369 39.9842 34.0386 39.9663C35.1403 39.9484 36.2344 40.148 37.2567 40.5533C37.5574 40.6705 37.8858 40.7007 38.2034 40.6404C38.5209 40.58 38.8144 40.4316 39.0494 40.2126C39.6644 39.6428 40.2474 39.0403 40.7959 38.4079C41.0073 38.1614 41.1431 37.8606 41.1874 37.5408C41.2317 37.2209 41.1827 36.8952 41.0461 36.6018C40.5931 35.6152 40.3441 34.5495 40.3136 33.4669C40.2831 32.3843 40.4718 31.3066 40.8687 30.2967C41.2655 29.2868 41.8625 28.3651 42.6247 27.5853C43.387 26.8056 44.2993 26.1834 45.3082 25.7553C45.6094 25.6289 45.8679 25.4207 46.0535 25.1549C46.2391 24.8891 46.3441 24.5767 46.3564 24.2542C46.3825 23.4236 46.3622 22.5923 46.2957 21.7639ZM27.5454 33.3104C25.5852 34.1605 23.4135 34.4185 21.3047 34.0517C19.1959 33.6849 17.2447 32.7098 15.6979 31.2497C14.1512 29.7896 13.0782 27.9101 12.6148 25.8488C12.1514 23.7875 12.3183 21.6371 13.0944 19.6693C13.8705 17.7015 15.221 16.0048 16.9751 14.7938C18.7291 13.5827 20.808 12.9117 22.9489 12.8655C25.0898 12.8194 27.1964 13.4001 29.0025 14.5344C30.8086 15.6687 32.2331 17.3055 33.0957 19.2379C33.6688 20.5212 33.9798 21.9032 34.011 23.3051C34.0422 24.7069 33.793 26.1011 33.2775 27.4079C32.7621 28.7148 31.9906 29.9087 31.007 30.9214C30.0235 31.9342 28.8472 32.746 27.5454 33.3104Z" fill="#444444"/>
<g filter="url(#filter0_b_135_448)">
<path d="M38.152 34.0851C38.1446 34.7506 38.0047 35.408 37.7405 36.0188C37.4762 36.6297 37.0929 37.1818 36.613 37.6428C36.1341 38.105 35.5679 38.467 34.9474 38.7077C34.327 38.9483 33.6648 39.0628 32.9995 39.0444C32.8011 39.0381 32.6049 39.0882 32.4339 39.1891C32.2628 39.29 32.124 39.4374 32.0336 39.6142C31.8004 40.0764 31.5929 40.5512 31.4121 41.0363C31.3434 41.2198 31.3281 41.419 31.3682 41.6108C31.4082 41.8026 31.5019 41.979 31.6383 42.1197C32.1072 42.5958 32.4759 43.1611 32.7228 43.7821C32.9697 44.403 33.0897 45.0672 33.0758 45.7353C33.0636 46.4041 32.9176 47.0637 32.6464 47.6752C32.3752 48.2867 31.9843 48.8377 31.4967 49.2957C31.355 49.431 31.2547 49.6037 31.2073 49.7938C31.1599 49.9839 31.1675 50.1836 31.2291 50.3695C31.3898 50.8601 31.5781 51.3413 31.7931 51.8106C31.8765 51.9911 32.0095 52.144 32.1767 52.2516C32.3438 52.3592 32.5381 52.417 32.7369 52.4182C33.4034 52.425 34.0618 52.5646 34.6737 52.829C35.2855 53.0934 35.8385 53.4772 36.3002 53.9579C36.7629 54.4383 37.1251 55.0062 37.3655 55.6284C37.6059 56.2506 37.7197 56.9145 37.7001 57.5812C37.6938 57.7799 37.7441 57.9762 37.845 58.1474C37.946 58.3186 38.0934 58.4576 38.2703 58.5483C38.7292 58.7802 39.2005 58.9867 39.682 59.167C39.866 59.2359 40.0659 59.2511 40.2582 59.2108C40.4505 59.1704 40.6274 59.0762 40.7681 58.9391C41.2446 58.4681 41.8107 58.0975 42.4331 57.8493C43.0554 57.6012 43.7212 57.4805 44.391 57.4944C45.0613 57.5063 45.7224 57.6528 46.335 57.9252C46.9476 58.1976 47.4992 58.5903 47.9571 59.0799C48.0925 59.2226 48.2657 59.3237 48.4564 59.3713C48.6472 59.419 48.8476 59.4113 49.0341 59.3491C49.5213 59.1881 49.9994 59.0007 50.4663 58.7877C50.6469 58.704 50.8 58.5706 50.9076 58.4031C51.0152 58.2356 51.0729 58.041 51.0738 57.8419C51.0798 57.1741 51.2192 56.5142 51.4838 55.9011C51.7485 55.288 52.133 54.7339 52.6148 54.2715C53.0958 53.8084 53.6643 53.4459 54.287 53.2053C54.9098 52.9647 55.5743 52.8508 56.2417 52.8703C56.4406 52.8769 56.6372 52.8267 56.8087 52.7256C56.9801 52.6246 57.1193 52.4769 57.2099 52.2997C57.4403 51.8416 57.6456 51.3714 57.8251 50.8912C57.8941 50.7072 57.9093 50.5073 57.869 50.315C57.8286 50.1227 57.7344 49.9458 57.5973 49.8051C57.1253 49.3287 56.7539 48.7623 56.5053 48.1395C56.2566 47.5168 56.1357 46.8504 56.1497 46.1799C56.1613 45.509 56.3076 44.8472 56.5798 44.2339C56.852 43.6206 57.2446 43.0682 57.7344 42.6095C57.8766 42.4742 57.9774 42.3012 58.0249 42.1108C58.0724 41.9204 58.0647 41.7203 58.0028 41.5341C57.8415 41.0459 57.6536 40.5668 57.4397 40.0992C57.3556 39.9198 57.2223 39.768 57.0554 39.6614C56.8884 39.5547 56.6946 39.4976 56.4964 39.4968C55.8292 39.4897 55.17 39.3494 54.5577 39.0841C53.9454 38.8189 53.3922 38.434 52.9307 37.9521C52.3943 37.396 51.9938 36.7234 51.7605 35.987C51.5271 35.2505 51.4672 34.47 51.5855 33.7065C50.9305 33.333 50.2463 33.0132 49.5396 32.7503C49.3559 32.6818 49.1567 32.6668 48.9648 32.707C48.773 32.7471 48.5965 32.8409 48.4558 32.9773C47.9797 33.4471 47.4142 33.8167 46.7928 34.0641C46.1714 34.3115 45.5066 34.4317 44.8379 34.4176C44.1698 34.4059 43.5109 34.2605 42.8999 33.99C42.2889 33.7195 41.7382 33.3295 41.2804 32.8428C41.1453 32.7009 40.9727 32.6002 40.7826 32.5527C40.5926 32.5052 40.3929 32.5127 40.2069 32.5744C39.7151 32.736 39.2327 32.925 38.7619 33.1404C38.5809 33.2236 38.4274 33.3566 38.3194 33.5239C38.2113 33.6913 38.1533 33.8859 38.152 34.0851Z" fill="url(#paint0_linear_135_448)" fill-opacity="0.5"/>
</g>
<circle cx="44.7346" cy="46.7268" r="4.2449" fill="white"/>
<defs>
<filter id="filter0_b_135_448" x="21.1768" y="22.522" width="46.8789" height="46.8804" filterUnits="userSpaceOnUse" color-interpolation-filters="sRGB">
<feFlood flood-opacity="0" result="BackgroundImageFix"/>
<feGaussianBlur in="BackgroundImage" stdDeviation="5"/>
<feComposite in2="SourceAlpha" operator="in" result="effect1_backgroundBlur_135_448"/>
<feBlend mode="normal" in="SourceGraphic" in2="effect1_backgroundBlur_135_448" result="shape"/>
</filter>
<linearGradient id="paint0_linear_135_448" x1="51.5862" y1="64.4091" x2="31.0409" y2="29.322" gradientUnits="userSpaceOnUse">
<stop stop-color="#E1E1E1"/>
<stop offset="1" stop-color="#D7D7D7" stop-opacity="0.5"/>
</linearGradient>
</defs>
</svg>
